<svg xmlns="http://www.w3.org/2000/svg" width="800" height="800" viewBox="0 0 456.793 456.793" xml:space="preserve"><path d="M448.947 218.474c-.922-1.168-23.055-28.933-61-56.81-50.707-37.253-105.879-56.944-159.551-56.944-53.673 0-108.845 19.691-159.551 56.944-37.944 27.876-60.077 55.642-61 56.81L0 228.396l7.845 9.923c.923 1.168 23.056 28.934 61 56.811 50.707 37.254 105.878 56.943 159.551 56.943s108.844-19.689 159.551-56.943c37.945-27.877 60.078-55.643 61-56.811l7.846-9.923zm-220.551 93.622c-46.152 0-83.699-37.548-83.699-83.699 0-46.152 37.547-83.699 83.699-83.699s83.7 37.547 83.7 83.699-37.548 83.699-83.7 83.699m-186.711-83.7c9.197-9.872 25.32-25.764 46.833-41.478 13.911-10.16 31.442-21.181 51.772-30.305-15.989 19.589-25.593 44.584-25.593 71.782s9.604 52.193 25.593 71.782c-20.329-9.124-37.861-20.146-51.771-30.306-21.517-15.712-37.641-31.606-46.834-41.475m326.588 41.478c-13.912 10.16-31.443 21.182-51.771 30.306 15.988-19.589 25.594-44.584 25.594-71.782s-9.605-52.193-25.594-71.782c20.33 9.124 37.861 20.146 51.771 30.305 21.516 15.715 37.639 31.609 46.832 41.477-9.195 9.87-25.32 25.763-46.832 41.476"/><path d="M223.646 168.834c-27.513 4-50.791 31.432-41.752 59.562 8.23-20.318 25.457-33.991 45.795-32.917 16.336.863 33.983 18.237 33.59 32.228 1.488 22.407-12.725 39.047-32.884 47.191 46.671 15.21 73.197-44.368 51.818-79.352-11.981-19.604-34.244-29.316-56.567-26.712"/></svg>